<svg width="1440" height="193" viewBox="0 0 1440 193" fill="none" xmlns="http://www.w3.org/2000/svg">
<rect width="1440" height="193" fill="#F67373"/>
<path d="M246.772 52.2266L250.678 60.5151L254.609 52.2266H258.295L252.387 63.4937V70H248.981V63.4937L243.061 52.2266H246.772ZM258.454 63.5303V63.2739C258.454 62.3055 258.592 61.4144 258.869 60.6006C259.146 59.7786 259.549 59.0666 260.078 58.4644C260.607 57.8621 261.254 57.3942 262.019 57.0605C262.784 56.7188 263.654 56.5479 264.631 56.5479C265.624 56.5479 266.503 56.7188 267.268 57.0605C268.041 57.3942 268.692 57.8621 269.221 58.4644C269.75 59.0666 270.153 59.7786 270.429 60.6006C270.706 61.4144 270.844 62.3055 270.844 63.2739V63.5303C270.844 64.4906 270.706 65.3817 270.429 66.2036C270.153 67.0174 269.75 67.7295 269.221 68.3398C268.692 68.9421 268.045 69.41 267.28 69.7437C266.515 70.0773 265.64 70.2441 264.655 70.2441C263.679 70.2441 262.804 70.0773 262.031 69.7437C261.258 69.41 260.607 68.9421 260.078 68.3398C259.549 67.7295 259.146 67.0174 258.869 66.2036C258.592 65.3817 258.454 64.4906 258.454 63.5303ZM261.677 63.2739V63.5303C261.677 64.1081 261.734 64.6493 261.848 65.1538C261.962 65.6584 262.137 66.1019 262.373 66.4844C262.609 66.8669 262.914 67.168 263.288 67.3877C263.671 67.5993 264.126 67.7051 264.655 67.7051C265.176 67.7051 265.624 67.5993 265.998 67.3877C266.372 67.168 266.678 66.8669 266.914 66.4844C267.158 66.1019 267.337 65.6584 267.451 65.1538C267.565 64.6493 267.622 64.1081 267.622 63.5303V63.2739C267.622 62.7043 267.565 62.1712 267.451 61.6748C267.337 61.1702 267.158 60.7267 266.914 60.3442C266.678 59.9536 266.368 59.6484 265.986 59.4287C265.611 59.2008 265.16 59.0869 264.631 59.0869C264.11 59.0869 263.662 59.2008 263.288 59.4287C262.914 59.6484 262.609 59.9536 262.373 60.3442C262.137 60.7267 261.962 61.1702 261.848 61.6748C261.734 62.1712 261.677 62.7043 261.677 63.2739ZM280.451 66.3867C280.451 66.11 280.378 65.8618 280.231 65.6421C280.085 65.4224 279.808 65.223 279.401 65.0439C279.003 64.8568 278.417 64.6818 277.644 64.519C276.96 64.3726 276.329 64.1895 275.751 63.9697C275.174 63.75 274.677 63.4855 274.262 63.1763C273.847 62.8589 273.522 62.4886 273.286 62.0654C273.058 61.6341 272.944 61.1377 272.944 60.5762C272.944 60.0309 273.062 59.5182 273.298 59.0381C273.534 58.5498 273.876 58.1226 274.323 57.7563C274.771 57.382 275.316 57.089 275.959 56.8774C276.602 56.6577 277.326 56.5479 278.132 56.5479C279.255 56.5479 280.219 56.731 281.025 57.0972C281.839 57.4634 282.461 57.9679 282.893 58.6108C283.324 59.2456 283.54 59.9618 283.54 60.7593H280.317C280.317 60.4093 280.236 60.092 280.073 59.8071C279.918 59.5223 279.678 59.2944 279.353 59.1235C279.027 58.9445 278.616 58.855 278.12 58.855C277.672 58.855 277.294 58.9282 276.984 59.0747C276.683 59.2212 276.455 59.4124 276.301 59.6484C276.146 59.8844 276.069 60.1449 276.069 60.4297C276.069 60.6413 276.11 60.8325 276.191 61.0034C276.28 61.1662 276.423 61.3167 276.618 61.4551C276.813 61.5934 277.078 61.7196 277.412 61.8335C277.753 61.9474 278.173 62.0573 278.669 62.1631C279.654 62.3584 280.512 62.6188 281.245 62.9443C281.985 63.2617 282.563 63.6849 282.978 64.2139C283.393 64.7428 283.601 65.4183 283.601 66.2402C283.601 66.8262 283.474 67.3633 283.222 67.8516C282.97 68.3317 282.604 68.7508 282.124 69.1089C281.643 69.467 281.07 69.7477 280.402 69.9512C279.735 70.1465 278.982 70.2441 278.144 70.2441C276.931 70.2441 275.906 70.0285 275.068 69.5972C274.23 69.1577 273.595 68.6043 273.164 67.937C272.732 67.2616 272.517 66.5617 272.517 65.8374H275.605C275.629 66.3501 275.768 66.7611 276.02 67.0703C276.272 67.3796 276.59 67.6034 276.972 67.7417C277.363 67.8719 277.774 67.937 278.205 67.937C278.693 67.937 279.104 67.8719 279.438 67.7417C279.772 67.6034 280.024 67.4202 280.195 67.1924C280.366 66.9564 280.451 66.6878 280.451 66.3867ZM289.216 51.25V70H285.981V51.25H289.216ZM288.703 62.9199H287.751C287.751 62.0003 287.873 61.154 288.117 60.3809C288.361 59.6077 288.707 58.9364 289.155 58.3667C289.602 57.7889 290.135 57.3413 290.754 57.0239C291.381 56.7065 292.072 56.5479 292.829 56.5479C293.48 56.5479 294.07 56.6414 294.599 56.8286C295.136 57.0076 295.596 57.2965 295.979 57.6953C296.361 58.0941 296.654 58.6149 296.857 59.2578C297.069 59.8926 297.175 60.6657 297.175 61.5771V70H293.928V61.5527C293.928 60.9424 293.838 60.4622 293.659 60.1123C293.48 59.7542 293.224 59.4979 292.89 59.3433C292.565 59.1886 292.162 59.1113 291.682 59.1113C291.161 59.1113 290.713 59.2131 290.339 59.4165C289.965 59.6118 289.655 59.8844 289.411 60.2344C289.175 60.5843 288.996 60.9871 288.874 61.4429C288.76 61.8986 288.703 62.391 288.703 62.9199ZM303.437 56.792V70H300.202V56.792H303.437ZM299.982 53.3374C299.982 52.8573 300.145 52.4585 300.471 52.1411C300.804 51.8237 301.252 51.665 301.813 51.665C302.375 51.665 302.819 51.8237 303.144 52.1411C303.478 52.4585 303.645 52.8573 303.645 53.3374C303.645 53.8094 303.478 54.2041 303.144 54.5215C302.819 54.8389 302.375 54.9976 301.813 54.9976C301.252 54.9976 300.804 54.8389 300.471 54.5215C300.145 54.2041 299.982 53.8094 299.982 53.3374ZM309.736 51.2378V70H306.513V51.2378H309.736ZM318.012 56.792L312.263 63.2495L309.15 66.4111L308.125 63.9087L310.529 60.8813L314.118 56.792H318.012ZM314.716 70L310.627 63.8477L312.775 61.7603L318.452 70H314.716ZM319.147 63.5303V63.2739C319.147 62.3055 319.286 61.4144 319.562 60.6006C319.839 59.7786 320.242 59.0666 320.771 58.4644C321.3 57.8621 321.947 57.3942 322.712 57.0605C323.477 56.7188 324.348 56.5479 325.324 56.5479C326.317 56.5479 327.196 56.7188 327.961 57.0605C328.734 57.3942 329.385 57.8621 329.914 58.4644C330.443 59.0666 330.846 59.7786 331.123 60.6006C331.399 61.4144 331.538 62.3055 331.538 63.2739V63.5303C331.538 64.4906 331.399 65.3817 331.123 66.2036C330.846 67.0174 330.443 67.7295 329.914 68.3398C329.385 68.9421 328.738 69.41 327.973 69.7437C327.208 70.0773 326.333 70.2441 325.349 70.2441C324.372 70.2441 323.497 70.0773 322.724 69.7437C321.951 69.41 321.3 68.9421 320.771 68.3398C320.242 67.7295 319.839 67.0174 319.562 66.2036C319.286 65.3817 319.147 64.4906 319.147 63.5303ZM322.37 63.2739V63.5303C322.37 64.1081 322.427 64.6493 322.541 65.1538C322.655 65.6584 322.83 66.1019 323.066 66.4844C323.302 66.8669 323.607 67.168 323.981 67.3877C324.364 67.5993 324.82 67.7051 325.349 67.7051C325.869 67.7051 326.317 67.5993 326.691 67.3877C327.066 67.168 327.371 66.8669 327.607 66.4844C327.851 66.1019 328.03 65.6584 328.144 65.1538C328.258 64.6493 328.315 64.1081 328.315 63.5303V63.2739C328.315 62.7043 328.258 62.1712 328.144 61.6748C328.03 61.1702 327.851 60.7267 327.607 60.3442C327.371 59.9536 327.062 59.6484 326.679 59.4287C326.305 59.2008 325.853 59.0869 325.324 59.0869C324.803 59.0869 324.356 59.2008 323.981 59.4287C323.607 59.6484 323.302 59.9536 323.066 60.3442C322.83 60.7267 322.655 61.1702 322.541 61.6748C322.427 62.1712 322.37 62.7043 322.37 63.2739ZM246.162 87.2266H249.067L253.925 100.605L258.771 87.2266H261.689L255.085 105H252.753L246.162 87.2266ZM244.697 87.2266H247.541L248.054 99.519V105H244.697V87.2266ZM260.297 87.2266H263.154V105H259.797V99.519L260.297 87.2266ZM273.603 102.192V96.1011C273.603 95.6535 273.526 95.2669 273.371 94.9414C273.216 94.6159 272.98 94.3636 272.663 94.1846C272.346 94.0055 271.943 93.916 271.455 93.916C271.023 93.916 270.645 93.9893 270.319 94.1357C270.002 94.2822 269.758 94.4897 269.587 94.7583C269.416 95.0187 269.331 95.3198 269.331 95.6616H266.096C266.096 95.1164 266.226 94.5996 266.486 94.1113C266.747 93.6149 267.117 93.1755 267.597 92.793C268.085 92.4023 268.667 92.0972 269.343 91.8774C270.026 91.6577 270.791 91.5479 271.638 91.5479C272.639 91.5479 273.53 91.7188 274.311 92.0605C275.1 92.3942 275.719 92.8988 276.167 93.5742C276.622 94.2497 276.85 95.1001 276.85 96.1255V101.887C276.85 102.546 276.891 103.112 276.972 103.584C277.062 104.048 277.192 104.451 277.363 104.792V105H274.079C273.924 104.666 273.806 104.243 273.725 103.73C273.644 103.21 273.603 102.697 273.603 102.192ZM274.055 96.9556L274.079 98.8721H272.041C271.536 98.8721 271.092 98.925 270.71 99.0308C270.327 99.1284 270.014 99.2749 269.77 99.4702C269.526 99.6574 269.343 99.8853 269.221 100.154C269.099 100.414 269.038 100.711 269.038 101.045C269.038 101.37 269.111 101.663 269.257 101.924C269.412 102.184 269.632 102.392 269.917 102.546C270.209 102.693 270.551 102.766 270.942 102.766C271.512 102.766 272.008 102.652 272.431 102.424C272.854 102.188 273.184 101.903 273.42 101.57C273.656 101.236 273.782 100.919 273.798 100.618L274.726 102.009C274.612 102.343 274.441 102.697 274.213 103.071C273.986 103.446 273.693 103.796 273.334 104.121C272.976 104.447 272.545 104.715 272.041 104.927C271.536 105.138 270.95 105.244 270.283 105.244C269.428 105.244 268.663 105.073 267.988 104.731C267.312 104.39 266.779 103.922 266.389 103.328C265.998 102.734 265.803 102.058 265.803 101.301C265.803 100.601 265.933 99.9829 266.193 99.4458C266.454 98.9087 266.84 98.457 267.353 98.0908C267.866 97.7165 268.5 97.4357 269.257 97.2485C270.022 97.0532 270.897 96.9556 271.882 96.9556H274.055ZM282.917 94.6118V105H279.694V91.792H282.722L282.917 94.6118ZM282.404 97.9199H281.452C281.46 96.9596 281.59 96.0889 281.843 95.3076C282.095 94.5264 282.449 93.855 282.905 93.2935C283.369 92.7319 283.918 92.3006 284.553 91.9995C285.188 91.6984 285.896 91.5479 286.677 91.5479C287.312 91.5479 287.885 91.6374 288.398 91.8164C288.911 91.9954 289.35 92.2803 289.716 92.6709C290.091 93.0615 290.375 93.5742 290.571 94.209C290.774 94.8356 290.876 95.6087 290.876 96.5283V105H287.629V96.5039C287.629 95.9017 287.539 95.4256 287.36 95.0757C287.189 94.7257 286.937 94.4775 286.604 94.3311C286.278 94.1846 285.875 94.1113 285.395 94.1113C284.899 94.1113 284.463 94.2131 284.089 94.4165C283.723 94.6118 283.413 94.8844 283.161 95.2344C282.917 95.5843 282.73 95.9871 282.6 96.4429C282.469 96.8986 282.404 97.391 282.404 97.9199ZM300.996 102.192V96.1011C300.996 95.6535 300.918 95.2669 300.764 94.9414C300.609 94.6159 300.373 94.3636 300.056 94.1846C299.738 94.0055 299.335 93.916 298.847 93.916C298.416 93.916 298.037 93.9893 297.712 94.1357C297.395 94.2822 297.15 94.4897 296.979 94.7583C296.809 95.0187 296.723 95.3198 296.723 95.6616H293.488C293.488 95.1164 293.618 94.5996 293.879 94.1113C294.139 93.6149 294.51 93.1755 294.99 92.793C295.478 92.4023 296.06 92.0972 296.735 91.8774C297.419 91.6577 298.184 91.5479 299.03 91.5479C300.031 91.5479 300.922 91.7188 301.704 92.0605C302.493 92.3942 303.111 92.8988 303.559 93.5742C304.015 94.2497 304.243 95.1001 304.243 96.1255V101.887C304.243 102.546 304.283 103.112 304.365 103.584C304.454 104.048 304.584 104.451 304.755 104.792V105H301.472C301.317 104.666 301.199 104.243 301.118 103.73C301.036 103.21 300.996 102.697 300.996 102.192ZM301.447 96.9556L301.472 98.8721H299.433C298.929 98.8721 298.485 98.925 298.103 99.0308C297.72 99.1284 297.407 99.2749 297.163 99.4702C296.918 99.6574 296.735 99.8853 296.613 100.154C296.491 100.414 296.43 100.711 296.43 101.045C296.43 101.37 296.503 101.663 296.65 101.924C296.805 102.184 297.024 102.392 297.309 102.546C297.602 102.693 297.944 102.766 298.334 102.766C298.904 102.766 299.401 102.652 299.824 102.424C300.247 102.188 300.576 101.903 300.812 101.57C301.049 101.236 301.175 100.919 301.191 100.618L302.119 102.009C302.005 102.343 301.834 102.697 301.606 103.071C301.378 103.446 301.085 103.796 300.727 104.121C300.369 104.447 299.938 104.715 299.433 104.927C298.929 105.138 298.343 105.244 297.675 105.244C296.821 105.244 296.056 105.073 295.38 104.731C294.705 104.39 294.172 103.922 293.781 103.328C293.391 102.734 293.195 102.058 293.195 101.301C293.195 100.601 293.326 99.9829 293.586 99.4458C293.846 98.9087 294.233 98.457 294.746 98.0908C295.258 97.7165 295.893 97.4357 296.65 97.2485C297.415 97.0532 298.29 96.9556 299.274 96.9556H301.447ZM315.546 91.792H318.476V104.597C318.476 105.793 318.216 106.807 317.695 107.637C317.182 108.475 316.462 109.11 315.534 109.541C314.606 109.98 313.528 110.2 312.299 110.2C311.77 110.2 311.197 110.127 310.578 109.98C309.968 109.834 309.378 109.602 308.808 109.285C308.247 108.975 307.779 108.573 307.404 108.076L308.857 106.172C309.296 106.685 309.793 107.071 310.346 107.332C310.9 107.6 311.498 107.734 312.141 107.734C312.792 107.734 313.345 107.612 313.801 107.368C314.265 107.132 314.619 106.782 314.863 106.318C315.115 105.863 315.241 105.301 315.241 104.634V94.8071L315.546 91.792ZM306.623 98.5547V98.2983C306.623 97.2892 306.745 96.3737 306.989 95.5518C307.233 94.7217 307.583 94.0096 308.039 93.4155C308.503 92.8215 309.06 92.3617 309.711 92.0361C310.371 91.7106 311.111 91.5479 311.933 91.5479C312.804 91.5479 313.536 91.7065 314.13 92.0239C314.733 92.3413 315.229 92.793 315.62 93.3789C316.018 93.9648 316.328 94.6606 316.547 95.4663C316.775 96.2638 316.95 97.1427 317.072 98.103V98.7988C316.958 99.7347 316.775 100.593 316.523 101.375C316.279 102.156 315.953 102.839 315.546 103.425C315.139 104.003 314.635 104.451 314.033 104.768C313.431 105.085 312.722 105.244 311.909 105.244C311.095 105.244 310.362 105.077 309.711 104.744C309.06 104.41 308.503 103.942 308.039 103.34C307.583 102.738 307.233 102.03 306.989 101.216C306.745 100.402 306.623 99.515 306.623 98.5547ZM309.846 98.2983V98.5547C309.846 99.1243 309.903 99.6574 310.017 100.154C310.131 100.65 310.306 101.09 310.542 101.472C310.778 101.847 311.075 102.139 311.433 102.351C311.791 102.563 312.218 102.668 312.714 102.668C313.382 102.668 313.927 102.53 314.35 102.253C314.781 101.969 315.107 101.582 315.327 101.094C315.555 100.597 315.701 100.04 315.766 99.4214V97.5049C315.725 97.0166 315.636 96.5649 315.498 96.1499C315.367 95.7349 315.184 95.3768 314.948 95.0757C314.712 94.7746 314.411 94.5386 314.045 94.3677C313.679 94.1968 313.243 94.1113 312.739 94.1113C312.25 94.1113 311.823 94.2212 311.457 94.4409C311.091 94.6525 310.79 94.9495 310.554 95.332C310.318 95.7145 310.139 96.158 310.017 96.6626C309.903 97.1672 309.846 97.7124 309.846 98.2983ZM327.314 105.244C326.313 105.244 325.414 105.081 324.616 104.756C323.819 104.43 323.139 103.979 322.578 103.401C322.024 102.815 321.597 102.135 321.296 101.362C321.003 100.581 320.856 99.7428 320.856 98.8477V98.3594C320.856 97.3421 321.003 96.4185 321.296 95.5884C321.589 94.7502 322.004 94.0299 322.541 93.4277C323.078 92.8255 323.721 92.3617 324.47 92.0361C325.218 91.7106 326.044 91.5479 326.948 91.5479C327.884 91.5479 328.71 91.7065 329.426 92.0239C330.142 92.3332 330.74 92.7726 331.22 93.3423C331.7 93.9119 332.062 94.5955 332.307 95.3931C332.551 96.1825 332.673 97.0573 332.673 98.0176V99.3726H322.321V97.1509H329.499V96.9067C329.483 96.394 329.385 95.9261 329.206 95.5029C329.027 95.0716 328.75 94.7298 328.376 94.4775C328.002 94.2171 327.517 94.0869 326.923 94.0869C326.443 94.0869 326.024 94.1927 325.666 94.4043C325.316 94.6077 325.023 94.9007 324.787 95.2832C324.559 95.6576 324.388 96.1051 324.274 96.626C324.16 97.1468 324.104 97.7246 324.104 98.3594V98.8477C324.104 99.401 324.177 99.9137 324.323 100.386C324.478 100.858 324.702 101.269 324.995 101.619C325.296 101.96 325.654 102.229 326.069 102.424C326.492 102.611 326.972 102.705 327.509 102.705C328.185 102.705 328.795 102.575 329.34 102.314C329.894 102.046 330.374 101.651 330.781 101.13L332.404 102.815C332.128 103.222 331.753 103.612 331.281 103.987C330.817 104.361 330.256 104.666 329.597 104.902C328.938 105.13 328.177 105.244 327.314 105.244ZM338.044 94.502V105H334.821V91.792H337.861L338.044 94.502ZM337.568 97.9199H336.579C336.579 97.0003 336.689 96.154 336.909 95.3809C337.137 94.6077 337.47 93.9364 337.91 93.3667C338.349 92.7889 338.89 92.3413 339.533 92.0239C340.184 91.7065 340.937 91.5479 341.792 91.5479C342.386 91.5479 342.931 91.6374 343.427 91.8164C343.924 91.9873 344.351 92.2599 344.709 92.6343C345.075 93.0005 345.356 93.4806 345.551 94.0747C345.747 94.6606 345.844 95.3646 345.844 96.1865V105H342.622V96.5161C342.622 95.8976 342.532 95.4134 342.353 95.0635C342.182 94.7135 341.934 94.4694 341.608 94.3311C341.283 94.1846 340.892 94.1113 340.437 94.1113C339.932 94.1113 339.497 94.2131 339.13 94.4165C338.772 94.6118 338.475 94.8844 338.239 95.2344C338.011 95.5843 337.84 95.9871 337.727 96.4429C337.621 96.8986 337.568 97.391 337.568 97.9199ZM345.6 97.3218L344.27 97.5659C344.278 96.7358 344.392 95.9587 344.611 95.2344C344.831 94.502 345.153 93.8631 345.576 93.3179C346.007 92.7645 346.54 92.3332 347.175 92.0239C347.818 91.7065 348.558 91.5479 349.396 91.5479C350.048 91.5479 350.633 91.6414 351.154 91.8286C351.683 92.0076 352.135 92.2965 352.509 92.6953C352.884 93.0859 353.168 93.5946 353.364 94.2212C353.567 94.8478 353.669 95.6128 353.669 96.5161V105H350.422V96.5039C350.422 95.861 350.332 95.3687 350.153 95.0269C349.982 94.6851 349.734 94.4491 349.409 94.3188C349.083 94.1805 348.701 94.1113 348.261 94.1113C347.814 94.1113 347.423 94.1968 347.089 94.3677C346.764 94.5304 346.487 94.7583 346.259 95.0513C346.04 95.3442 345.873 95.686 345.759 96.0767C345.653 96.4591 345.6 96.8742 345.6 97.3218ZM362.495 105.244C361.494 105.244 360.594 105.081 359.797 104.756C358.999 104.43 358.32 103.979 357.758 103.401C357.205 102.815 356.778 102.135 356.477 101.362C356.184 100.581 356.037 99.7428 356.037 98.8477V98.3594C356.037 97.3421 356.184 96.4185 356.477 95.5884C356.77 94.7502 357.185 94.0299 357.722 93.4277C358.259 92.8255 358.902 92.3617 359.65 92.0361C360.399 91.7106 361.225 91.5479 362.128 91.5479C363.064 91.5479 363.89 91.7065 364.606 92.0239C365.323 92.3332 365.921 92.7726 366.401 93.3423C366.881 93.9119 367.243 94.5955 367.487 95.3931C367.731 96.1825 367.854 97.0573 367.854 98.0176V99.3726H357.502V97.1509H364.68V96.9067C364.663 96.394 364.566 95.9261 364.387 95.5029C364.208 95.0716 363.931 94.7298 363.557 94.4775C363.182 94.2171 362.698 94.0869 362.104 94.0869C361.624 94.0869 361.205 94.1927 360.847 94.4043C360.497 94.6077 360.204 94.9007 359.968 95.2832C359.74 95.6576 359.569 96.1051 359.455 96.626C359.341 97.1468 359.284 97.7246 359.284 98.3594V98.8477C359.284 99.401 359.357 99.9137 359.504 100.386C359.659 100.858 359.882 101.269 360.175 101.619C360.476 101.96 360.834 102.229 361.25 102.424C361.673 102.611 362.153 102.705 362.69 102.705C363.365 102.705 363.976 102.575 364.521 102.314C365.074 102.046 365.555 101.651 365.961 101.13L367.585 102.815C367.308 103.222 366.934 103.612 366.462 103.987C365.998 104.361 365.437 104.666 364.777 104.902C364.118 105.13 363.357 105.244 362.495 105.244ZM373.176 94.6118V105H369.953V91.792H372.98L373.176 94.6118ZM372.663 97.9199H371.711C371.719 96.9596 371.849 96.0889 372.102 95.3076C372.354 94.5264 372.708 93.855 373.164 93.2935C373.627 92.7319 374.177 92.3006 374.812 91.9995C375.446 91.6984 376.154 91.5479 376.936 91.5479C377.57 91.5479 378.144 91.6374 378.657 91.8164C379.169 91.9954 379.609 92.2803 379.975 92.6709C380.349 93.0615 380.634 93.5742 380.83 94.209C381.033 94.8356 381.135 95.6087 381.135 96.5283V105H377.888V96.5039C377.888 95.9017 377.798 95.4256 377.619 95.0757C377.448 94.7257 377.196 94.4775 376.862 94.3311C376.537 94.1846 376.134 94.1113 375.654 94.1113C375.157 94.1113 374.722 94.2131 374.348 94.4165C373.981 94.6118 373.672 94.8844 373.42 95.2344C373.176 95.5843 372.989 95.9871 372.858 96.4429C372.728 96.8986 372.663 97.391 372.663 97.9199ZM390.229 91.792V94.1113H382.661V91.792H390.229ZM384.687 88.5449H387.922V101.191C387.922 101.582 387.975 101.883 388.081 102.095C388.186 102.306 388.345 102.449 388.557 102.522C388.768 102.595 389.021 102.632 389.313 102.632C389.525 102.632 389.72 102.62 389.899 102.595C390.078 102.571 390.229 102.546 390.351 102.522L390.363 104.939C390.095 105.028 389.79 105.102 389.448 105.159C389.114 105.216 388.736 105.244 388.312 105.244C387.588 105.244 386.953 105.122 386.408 104.878C385.863 104.626 385.44 104.223 385.139 103.669C384.838 103.108 384.687 102.367 384.687 101.448V88.5449ZM251.765 124.924L246.699 140H243.146L249.787 122.227H252.058L251.765 124.924ZM256 140L250.91 124.924L250.605 122.227H252.888L259.565 140H256ZM255.769 133.396V136.045H246.235V133.396H255.769ZM264.057 129.331V145.078H260.822V126.792H263.813L264.057 129.331ZM272.541 133.262V133.518C272.541 134.478 272.427 135.369 272.199 136.191C271.979 137.005 271.654 137.717 271.223 138.328C270.791 138.93 270.254 139.402 269.611 139.744C268.977 140.077 268.244 140.244 267.414 140.244C266.6 140.244 265.892 140.09 265.29 139.78C264.688 139.463 264.179 139.015 263.764 138.438C263.349 137.86 263.015 137.188 262.763 136.423C262.519 135.65 262.336 134.808 262.214 133.896V133.079C262.336 132.11 262.519 131.231 262.763 130.442C263.015 129.644 263.349 128.957 263.764 128.379C264.179 127.793 264.684 127.341 265.278 127.024C265.88 126.707 266.584 126.548 267.39 126.548C268.228 126.548 268.964 126.707 269.599 127.024C270.242 127.341 270.783 127.797 271.223 128.391C271.662 128.985 271.992 129.693 272.211 130.515C272.431 131.337 272.541 132.253 272.541 133.262ZM269.306 133.518V133.262C269.306 132.676 269.253 132.135 269.147 131.638C269.042 131.134 268.879 130.694 268.659 130.32C268.439 129.937 268.155 129.64 267.805 129.429C267.455 129.217 267.032 129.111 266.535 129.111C266.039 129.111 265.611 129.193 265.253 129.355C264.895 129.518 264.602 129.75 264.375 130.051C264.147 130.352 263.968 130.71 263.837 131.125C263.715 131.532 263.634 131.984 263.593 132.48V134.507C263.667 135.109 263.809 135.65 264.021 136.13C264.232 136.611 264.541 136.993 264.948 137.278C265.363 137.563 265.9 137.705 266.56 137.705C267.056 137.705 267.479 137.595 267.829 137.375C268.179 137.156 268.464 136.855 268.684 136.472C268.903 136.082 269.062 135.634 269.16 135.129C269.257 134.625 269.306 134.088 269.306 133.518ZM278.315 121.25V140H275.08V121.25H278.315ZM284.809 126.792V140H281.574V126.792H284.809ZM281.354 123.337C281.354 122.857 281.517 122.458 281.843 122.141C282.176 121.824 282.624 121.665 283.186 121.665C283.747 121.665 284.191 121.824 284.516 122.141C284.85 122.458 285.017 122.857 285.017 123.337C285.017 123.809 284.85 124.204 284.516 124.521C284.191 124.839 283.747 124.998 283.186 124.998C282.624 124.998 282.176 124.839 281.843 124.521C281.517 124.204 281.354 123.809 281.354 123.337ZM293.305 137.705C293.761 137.705 294.168 137.616 294.526 137.437C294.884 137.257 295.169 137.005 295.38 136.68C295.6 136.354 295.718 135.976 295.734 135.544H298.774C298.758 136.44 298.505 137.241 298.017 137.949C297.529 138.657 296.878 139.219 296.064 139.634C295.258 140.041 294.355 140.244 293.354 140.244C292.337 140.244 291.45 140.073 290.693 139.731C289.936 139.39 289.305 138.914 288.801 138.303C288.304 137.693 287.93 136.985 287.678 136.179C287.434 135.374 287.312 134.511 287.312 133.591V133.201C287.312 132.281 287.434 131.418 287.678 130.613C287.93 129.807 288.304 129.099 288.801 128.489C289.305 127.878 289.936 127.402 290.693 127.061C291.45 126.719 292.333 126.548 293.342 126.548C294.408 126.548 295.344 126.755 296.149 127.17C296.963 127.585 297.598 128.171 298.054 128.928C298.518 129.685 298.758 130.576 298.774 131.602H295.734C295.718 131.13 295.612 130.706 295.417 130.332C295.222 129.958 294.945 129.657 294.587 129.429C294.229 129.201 293.793 129.087 293.281 129.087C292.736 129.087 292.28 129.201 291.914 129.429C291.556 129.657 291.275 129.97 291.071 130.369C290.876 130.759 290.738 131.199 290.656 131.687C290.583 132.167 290.546 132.672 290.546 133.201V133.591C290.546 134.128 290.583 134.641 290.656 135.129C290.738 135.618 290.876 136.057 291.071 136.448C291.275 136.83 291.556 137.135 291.914 137.363C292.28 137.591 292.744 137.705 293.305 137.705ZM308.198 137.192V131.101C308.198 130.653 308.12 130.267 307.966 129.941C307.811 129.616 307.575 129.364 307.258 129.185C306.94 129.006 306.538 128.916 306.049 128.916C305.618 128.916 305.24 128.989 304.914 129.136C304.597 129.282 304.353 129.49 304.182 129.758C304.011 130.019 303.925 130.32 303.925 130.662H300.69C300.69 130.116 300.821 129.6 301.081 129.111C301.341 128.615 301.712 128.175 302.192 127.793C302.68 127.402 303.262 127.097 303.938 126.877C304.621 126.658 305.386 126.548 306.232 126.548C307.233 126.548 308.125 126.719 308.906 127.061C309.695 127.394 310.314 127.899 310.761 128.574C311.217 129.25 311.445 130.1 311.445 131.125V136.887C311.445 137.546 311.486 138.112 311.567 138.584C311.656 139.048 311.787 139.451 311.958 139.792V140H308.674C308.519 139.666 308.401 139.243 308.32 138.73C308.238 138.21 308.198 137.697 308.198 137.192ZM308.649 131.956L308.674 133.872H306.635C306.131 133.872 305.687 133.925 305.305 134.031C304.922 134.128 304.609 134.275 304.365 134.47C304.121 134.657 303.938 134.885 303.815 135.154C303.693 135.414 303.632 135.711 303.632 136.045C303.632 136.37 303.706 136.663 303.852 136.924C304.007 137.184 304.226 137.392 304.511 137.546C304.804 137.693 305.146 137.766 305.537 137.766C306.106 137.766 306.603 137.652 307.026 137.424C307.449 137.188 307.779 136.903 308.015 136.57C308.251 136.236 308.377 135.919 308.393 135.618L309.321 137.009C309.207 137.343 309.036 137.697 308.808 138.071C308.58 138.446 308.287 138.796 307.929 139.121C307.571 139.447 307.14 139.715 306.635 139.927C306.131 140.138 305.545 140.244 304.877 140.244C304.023 140.244 303.258 140.073 302.583 139.731C301.907 139.39 301.374 138.922 300.983 138.328C300.593 137.734 300.397 137.058 300.397 136.301C300.397 135.601 300.528 134.983 300.788 134.446C301.049 133.909 301.435 133.457 301.948 133.091C302.46 132.716 303.095 132.436 303.852 132.249C304.617 132.053 305.492 131.956 306.477 131.956H308.649ZM320.6 126.792V129.111H313.032V126.792H320.6ZM315.058 123.545H318.293V136.191C318.293 136.582 318.346 136.883 318.452 137.095C318.557 137.306 318.716 137.449 318.928 137.522C319.139 137.595 319.392 137.632 319.685 137.632C319.896 137.632 320.091 137.62 320.271 137.595C320.45 137.571 320.6 137.546 320.722 137.522L320.734 139.939C320.466 140.028 320.161 140.102 319.819 140.159C319.485 140.216 319.107 140.244 318.684 140.244C317.959 140.244 317.325 140.122 316.779 139.878C316.234 139.626 315.811 139.223 315.51 138.669C315.209 138.108 315.058 137.367 315.058 136.448V123.545ZM326.167 126.792V140H322.932V126.792H326.167ZM322.712 123.337C322.712 122.857 322.875 122.458 323.2 122.141C323.534 121.824 323.981 121.665 324.543 121.665C325.104 121.665 325.548 121.824 325.874 122.141C326.207 122.458 326.374 122.857 326.374 123.337C326.374 123.809 326.207 124.204 325.874 124.521C325.548 124.839 325.104 124.998 324.543 124.998C323.981 124.998 323.534 124.839 323.2 124.521C322.875 124.204 322.712 123.809 322.712 123.337ZM328.669 133.53V133.274C328.669 132.306 328.807 131.414 329.084 130.601C329.361 129.779 329.764 129.067 330.292 128.464C330.821 127.862 331.468 127.394 332.233 127.061C332.998 126.719 333.869 126.548 334.846 126.548C335.839 126.548 336.717 126.719 337.482 127.061C338.256 127.394 338.907 127.862 339.436 128.464C339.965 129.067 340.367 129.779 340.644 130.601C340.921 131.414 341.059 132.306 341.059 133.274V133.53C341.059 134.491 340.921 135.382 340.644 136.204C340.367 137.017 339.965 137.729 339.436 138.34C338.907 138.942 338.26 139.41 337.495 139.744C336.73 140.077 335.855 140.244 334.87 140.244C333.894 140.244 333.019 140.077 332.246 139.744C331.472 139.41 330.821 138.942 330.292 138.34C329.764 137.729 329.361 137.017 329.084 136.204C328.807 135.382 328.669 134.491 328.669 133.53ZM331.892 133.274V133.53C331.892 134.108 331.949 134.649 332.062 135.154C332.176 135.658 332.351 136.102 332.587 136.484C332.823 136.867 333.129 137.168 333.503 137.388C333.885 137.599 334.341 137.705 334.87 137.705C335.391 137.705 335.839 137.599 336.213 137.388C336.587 137.168 336.892 136.867 337.128 136.484C337.373 136.102 337.552 135.658 337.666 135.154C337.779 134.649 337.836 134.108 337.836 133.53V133.274C337.836 132.704 337.779 132.171 337.666 131.675C337.552 131.17 337.373 130.727 337.128 130.344C336.892 129.954 336.583 129.648 336.201 129.429C335.826 129.201 335.375 129.087 334.846 129.087C334.325 129.087 333.877 129.201 333.503 129.429C333.129 129.648 332.823 129.954 332.587 130.344C332.351 130.727 332.176 131.17 332.062 131.675C331.949 132.171 331.892 132.704 331.892 133.274ZM346.564 129.612V140H343.342V126.792H346.369L346.564 129.612ZM346.052 132.92H345.1C345.108 131.96 345.238 131.089 345.49 130.308C345.743 129.526 346.097 128.855 346.552 128.293C347.016 127.732 347.565 127.301 348.2 127C348.835 126.698 349.543 126.548 350.324 126.548C350.959 126.548 351.533 126.637 352.045 126.816C352.558 126.995 352.998 127.28 353.364 127.671C353.738 128.062 354.023 128.574 354.218 129.209C354.422 129.836 354.523 130.609 354.523 131.528V140H351.276V131.504C351.276 130.902 351.187 130.426 351.008 130.076C350.837 129.726 350.585 129.478 350.251 129.331C349.925 129.185 349.523 129.111 349.042 129.111C348.546 129.111 348.111 129.213 347.736 129.417C347.37 129.612 347.061 129.884 346.809 130.234C346.564 130.584 346.377 130.987 346.247 131.443C346.117 131.899 346.052 132.391 346.052 132.92Z" fill="#0C0C20"/>
<path d="M1161.85 97.1737C1162.81 98.1439 1162.89 99.8031 1162.02 100.882L1154.99 109.636C1154.56 110.161 1153.95 110.478 1153.31 110.402C1152.67 110.522 1152.05 110.237 1151.59 109.636L1147.69 105.261C1146.77 104.331 1146.77 102.669 1147.69 101.644C1148.6 100.619 1150.09 100.619 1151 101.644L1153.16 104.058L1158.54 97.3684C1159.4 96.2911 1160.89 96.2036 1161.85 97.1737ZM1161.85 114.678C1162.81 115.641 1162.89 117.303 1162.02 118.386L1154.99 127.136C1154.56 127.661 1153.95 127.978 1153.31 127.902C1152.67 128.022 1152.05 127.737 1151.59 127.136L1147.69 122.761C1146.77 121.831 1146.77 120.169 1147.69 119.141C1148.6 118.123 1150.09 118.123 1151 119.141L1153.16 121.558L1158.54 114.864C1159.4 113.792 1160.89 113.705 1161.85 114.678ZM1168.88 103.5C1168.88 101.567 1170.27 100 1172 100H1193.88C1195.6 100 1197 101.567 1197 103.5C1197 105.436 1195.6 107 1193.88 107H1172C1170.27 107 1168.88 105.436 1168.88 103.5ZM1168.88 121C1168.88 119.064 1170.27 117.5 1172 117.5H1193.88C1195.6 117.5 1197 119.064 1197 121C1197 122.936 1195.6 124.5 1193.88 124.5H1172C1170.27 124.5 1168.88 122.936 1168.88 121ZM1162.62 138.5C1162.62 136.564 1164.02 135 1165.75 135H1193.88C1195.6 135 1197 136.564 1197 138.5C1197 140.436 1195.6 142 1193.88 142H1165.75C1164.02 142 1162.62 140.436 1162.62 138.5ZM1147 138.5C1147 135.602 1149.1 133.25 1151.69 133.25C1154.28 133.25 1156.38 135.602 1156.38 138.5C1156.38 141.398 1154.28 143.75 1151.69 143.75C1149.1 143.75 1147 141.398 1147 138.5Z" fill="#0C0C20"/>
</svg>
